# xmcd
#
# Track frame offsets:
#	150
#	13540
#	29002
#	40746
#	55755
#	68415
#	87024
#	110228
#	138022
#	160448
#	174917
#
# Disc length: 2568 seconds
#
# Revision: 0
# Processed by: cddbd v1.5.1PL0 Copyright (c) Steve Scherf et al.
# Submitted via: EasyCDDAExtractor 8.0.2.1
#
DISCID=840a060b
DTITLE=Alice Cooper - Enmore Theatre Sydney 24-06-05 Disc 2
DYEAR=2005
DGENRE=Hard Rock
TTITLE0=Gimme 
TTITLE1=Feed My Frankenstein 
TTITLE2=Welcome To My Nightmare 
TTITLE3=The Awakening - Steven
TTITLE4=Only Women Bleed
TTITLE5=Ballad Of Dwight Fry 
TTITLE6=I Love The Dead 
TTITLE7=Schools Out
TTITLE8=Poison
TTITLE9=Wish I Was Born In Beverly Hills 
TTITLE10=Under My Wheels
EXTD=
EXTT0=
EXTT1=
EXTT2=
EXTT3=
EXTT4=
EXTT5=
EXTT6=
EXTT7=
EXTT8=
EXTT9=
EXTT10=
PLAYORDER=
